<svg width="95" height="43" viewBox="0 0 95 43" fill="none" xmlns="http://www.w3.org/2000/svg">
<path d="M54.4349 0.882812V8.37155H56.9968V3.54723H92.3209V40.2342H57.0124V35.331H54.4504V42.8828H94.8984V0.882812H54.4349Z" fill="black"/>
<path fill-rule="evenodd" clip-rule="evenodd" d="M72.4364 17.0772C72.1214 15.0846 70.9874 14.0643 68.8453 14.0643H62.6397C60.4977 14.0643 59.3636 15.0686 59.0486 17.0613C59.0171 17.3004 59.0014 17.5395 58.9856 17.7946V29.6868H62.8602V19.1655C62.8602 18.3525 63.1437 18.0337 63.8997 18.0337H67.5853C68.2626 18.0337 68.6091 18.3525 68.6091 19.1655V29.6868H72.4837V17.7946C72.4994 17.5555 72.4679 17.3164 72.4364 17.0772ZM53.4258 29.6868H57.3003V14.0643H53.4258V29.6868ZM46.3066 8.42114H42.432V29.7027H46.3066V18.0496H50.0237V14.0803H46.3066V8.42114ZM36.8879 29.6868H40.7625V8.42114H36.8879V29.6868ZM10.5691 19.1655C10.5691 18.3366 10.1439 18.0337 9.54536 18.0337H5.87554C5.13527 18.0337 4.77302 18.3685 4.77302 19.1337V25.7174H9.54536C10.2226 25.7174 10.5849 25.287 10.5849 24.5856V19.1655H10.5691ZM14.3965 17.3004C14.428 17.5076 14.4595 17.7308 14.4595 17.9381V25.7493C14.4595 26.5942 14.2862 27.2637 13.9555 27.8376C13.2152 29.1607 12.3489 29.6868 10.9314 29.6868H0.914188L0.898438 8.4052H4.77302V14.0643H10.9786C11.2306 14.0643 11.4827 14.0962 11.7189 14.144C13.1679 14.4788 14.1917 15.6266 14.3965 17.3004ZM25.7682 24.5856C25.7682 25.3986 25.4847 25.7174 24.7287 25.7174H21.0431C20.3658 25.7174 20.0193 25.3986 20.0193 24.5856V14.0643H16.1447V25.9565C16.1447 26.1956 16.1762 26.4507 16.2078 26.6739C16.5228 28.6665 17.641 29.6868 19.7988 29.6868H26.0045C28.1465 29.6868 29.2805 28.6825 29.5955 26.6739C29.627 26.4347 29.6585 26.1797 29.6585 25.9565V14.0643H25.7839V24.5856H25.7682ZM31.3438 29.7186H35.2184V14.0962H31.3438V29.7186Z" fill="black"/>
</svg>