<svg width="138" height="25" viewBox="0 0 138 25" fill="none" xmlns="http://www.w3.org/2000/svg">
<path d="M18.5966 23.5221V10.7685H18.4824L12.4087 21.0409H11.0844L5.01073 10.7685H4.96506V23.5221H0.101562V1.53949H4.7824L11.8607 13.5975H11.9292L19.0076 1.53949H23.4829V23.5221H18.5966ZM26.0402 8.38007C27.5701 7.59166 30.4014 6.64094 33.5524 6.64094C37.2971 6.64094 40.9504 7.9163 40.9504 11.6264V20.4149C40.9504 21.1569 41.1559 22.4786 41.5441 23.5221H37.1144C36.9317 23.1743 36.7947 22.2931 36.7262 21.6902C35.5389 22.8496 34.1004 23.9859 31.2919 23.9859C27.3874 23.9859 24.8757 21.6206 24.8757 18.3975C24.8757 15.3134 27.5016 12.9482 32.0226 12.9482C33.7351 12.9482 35.3106 13.3656 36.7034 14.2931V12.6236C36.7034 10.9308 35.1964 10.1424 33.2556 10.1424C31.2006 10.1424 28.5747 11.0699 27.3874 11.696C27.3874 11.7192 26.0402 8.38007 26.0402 8.38007ZM36.7491 18.9076V17.3076C36.0412 16.7047 34.6256 16.1482 32.9359 16.1482C30.3101 16.1482 29.3511 17.1685 29.3511 18.4438C29.3511 19.8351 30.4699 20.7395 32.3422 20.7395C34.6484 20.7163 36.0412 19.3714 36.7491 18.9076ZM55.6094 12.3917C54.2851 11.0699 52.7552 10.4438 51.4537 10.4438C49.0791 10.4438 47.1154 12.3221 47.1154 15.3366C47.1154 18.3511 49.1704 20.3685 51.5907 20.3685C53.2347 20.3685 54.6961 19.3482 55.9519 18.1424L58.6691 20.9018C57.9612 21.7598 55.2441 24.125 51.0884 24.125C46.4076 24.125 42.3889 20.6235 42.3889 15.3366C42.3889 10.096 46.2706 6.66413 51.0884 6.66413C53.5772 6.66413 56.1802 7.54529 58.3037 9.46993L55.6094 12.3917ZM73.2824 7.22065L76.2051 17.4931H76.4106L78.9222 7.22065H83.4661L78.3286 23.5221H74.1044L71.2731 13.5975H71.0676L68.2134 23.5221H64.0349L58.8974 7.22065H63.5326L66.1127 17.4931H66.3182L69.2409 7.22065H73.2824ZM91.5947 6.61776C96.8692 6.61776 100.454 10.4207 100.454 15.2902C100.454 20.183 96.8921 24.125 91.5947 24.125C86.3659 24.125 82.8039 20.2293 82.8039 15.3366C82.8039 10.4438 86.3659 6.61776 91.5947 6.61776ZM91.5947 20.3917C94.3576 20.3917 95.9559 18.0264 95.9559 15.2902C95.9559 12.6004 94.3576 10.3279 91.5947 10.3279C88.9004 10.3279 87.3477 12.6004 87.3477 15.2902C87.3706 18.0496 88.9004 20.3917 91.5947 20.3917ZM106.185 13.0177V23.4989H101.641V11.812C101.641 10.4207 101.687 9.00616 101.322 7.24384H105.386C105.523 7.96268 105.66 8.84384 105.729 9.65543C106.733 7.96268 107.898 6.64094 109.976 6.64094C110.82 6.64094 111.894 6.84964 112.464 7.31341L111.254 11.4178C110.775 11.2091 109.61 10.954 109.017 10.954C107.852 10.9308 107.236 11.8583 106.185 13.0177ZM113.857 23.5221V0.125H118.401V23.5221H113.857ZM132.946 23.5221C132.832 23.1743 132.763 22.1772 132.74 21.5975C131.736 22.7337 129.978 24.0322 127.717 24.0322C123.379 24.0322 119.862 20.554 119.862 15.2902C119.862 10.0496 123.493 6.61776 127.74 6.61776C129.338 6.61776 130.959 7.40616 132.352 8.63514V0.125H136.896V18.9076C136.896 20.2525 136.759 21.7366 137.102 23.5221H132.946ZM124.635 15.3366C124.635 18.3511 126.301 20.3221 128.402 20.3221C130.32 20.3221 131.644 19.1163 132.352 18.5134V12.2757C130.959 11.1395 129.726 10.4438 128.402 10.4438C126.279 10.4438 124.635 12.3221 124.635 15.3366Z" fill="black"/>
</svg>